<svg width="238" height="43" viewBox="0 0 238 43" fill="none" xmlns="http://www.w3.org/2000/svg">
    <g clip-path="url(#clip0_4_29)">
        <mask id="mask0_4_29" style="mask-type:luminance" maskUnits="userSpaceOnUse" x="0" y="3"
            width="36" height="36">
            <path d="M36 3H0V39H36V3Z" fill="white" />
        </mask>
        <g mask="url(#mask0_4_29)">
            <path d="M36 3H0V39H36V3Z" fill="#B9FF66" />
            <path d="M12 15L32 7L26 21.5L32 35L12 27L4 35V21.5V7L12 15Z" fill="black" />
        </g>
    </g>
    <path
        d="M40.244 33V9.2H44.732V18.652H45.344L53.062 9.2H58.808L48.88 20.93L59.148 33H53.232L45.344 23.344H44.732V33H40.244ZM63.1008 39.8V36.06H72.2808C72.9154 36.06 73.2328 35.72 73.2328 35.04V30.79H72.6208C72.4394 31.1753 72.1561 31.5607 71.7708 31.946C71.3854 32.3313 70.8641 32.6487 70.2068 32.898C69.5494 33.1473 68.7108 33.272 67.6908 33.272C66.3761 33.272 65.2201 32.9773 64.2228 32.388C63.2481 31.776 62.4888 30.9373 61.9448 29.872C61.4008 28.8067 61.1288 27.5827 61.1288 26.2V16.136H65.4128V25.86C65.4128 27.1293 65.7188 28.0813 66.3308 28.716C66.9654 29.3507 67.8608 29.668 69.0168 29.668C70.3314 29.668 71.3514 29.2373 72.0768 28.376C72.8021 27.492 73.1648 26.268 73.1648 24.704V16.136H77.4488V35.992C77.4488 37.148 77.1088 38.066 76.4288 38.746C75.7488 39.4487 74.8421 39.8 73.7088 39.8H63.1008ZM82.2159 33V16.136H86.4319V18.346H87.0439C87.3159 17.7567 87.8259 17.2013 88.5739 16.68C89.3219 16.136 90.4553 15.864 91.9739 15.864C93.2886 15.864 94.4333 16.17 95.4079 16.782C96.4053 17.3713 97.1759 18.1987 97.7199 19.264C98.2639 20.3067 98.5359 21.5307 98.5359 22.936V33H94.2519V23.276C94.2519 22.0067 93.9346 21.0547 93.2999 20.42C92.6879 19.7853 91.8039 19.468 90.6479 19.468C89.3333 19.468 88.3133 19.91 87.5879 20.794C86.8626 21.6553 86.4999 22.868 86.4999 24.432V33H82.2159ZM110.851 33.476C109.174 33.476 107.689 33.1247 106.397 32.422C105.128 31.6967 104.13 30.688 103.405 29.396C102.702 28.0813 102.351 26.54 102.351 24.772V24.364C102.351 22.596 102.702 21.066 103.405 19.774C104.108 18.4593 105.094 17.4507 106.363 16.748C107.632 16.0227 109.106 15.66 110.783 15.66C112.438 15.66 113.877 16.034 115.101 16.782C116.325 17.5073 117.277 18.5273 117.957 19.842C118.637 21.134 118.977 22.6413 118.977 24.364V25.826H106.703C106.748 26.982 107.179 27.9227 107.995 28.648C108.811 29.3733 109.808 29.736 110.987 29.736C112.188 29.736 113.072 29.4753 113.639 28.954C114.206 28.4327 114.636 27.8547 114.931 27.22L118.433 29.056C118.116 29.6453 117.651 30.2913 117.039 30.994C116.45 31.674 115.656 32.2633 114.659 32.762C113.662 33.238 112.392 33.476 110.851 33.476ZM106.737 22.63H114.625C114.534 21.6553 114.138 20.8733 113.435 20.284C112.755 19.6947 111.86 19.4 110.749 19.4C109.593 19.4 108.675 19.6947 107.995 20.284C107.315 20.8733 106.896 21.6553 106.737 22.63ZM128.686 33C127.575 33 126.668 32.66 125.966 31.98C125.286 31.2773 124.946 30.348 124.946 29.192V19.672H120.73V16.136H124.946V10.9H129.23V16.136H133.854V19.672H129.23V28.444C129.23 29.124 129.547 29.464 130.182 29.464H133.446V33H128.686ZM137.732 33V16.136H142.016V33H137.732ZM139.874 14.164C139.103 14.164 138.446 13.9147 137.902 13.416C137.38 12.9173 137.12 12.26 137.12 11.444C137.12 10.628 137.38 9.97067 137.902 9.472C138.446 8.97333 139.103 8.724 139.874 8.724C140.667 8.724 141.324 8.97333 141.846 9.472C142.367 9.97067 142.628 10.628 142.628 11.444C142.628 12.26 142.367 12.9173 141.846 13.416C141.324 13.9147 140.667 14.164 139.874 14.164ZM154.685 33.476C153.053 33.476 151.568 33.136 150.231 32.456C148.916 31.776 147.873 30.79 147.103 29.498C146.332 28.206 145.947 26.642 145.947 24.806V24.33C145.947 22.494 146.332 20.93 147.103 19.638C147.873 18.346 148.916 17.36 150.231 16.68C151.568 16 153.053 15.66 154.685 15.66C156.294 15.66 157.677 15.9433 158.833 16.51C159.989 17.0767 160.918 17.8587 161.621 18.856C162.346 19.8307 162.822 20.9413 163.049 22.188L158.901 23.072C158.81 22.392 158.606 21.78 158.289 21.236C157.971 20.692 157.518 20.2613 156.929 19.944C156.362 19.6267 155.648 19.468 154.787 19.468C153.925 19.468 153.143 19.6607 152.441 20.046C151.761 20.4087 151.217 20.964 150.809 21.712C150.423 22.4373 150.231 23.3327 150.231 24.398V24.738C150.231 25.8033 150.423 26.71 150.809 27.458C151.217 28.1833 151.761 28.7387 152.441 29.124C153.143 29.4867 153.925 29.668 154.787 29.668C156.079 29.668 157.053 29.3393 157.711 28.682C158.391 28.002 158.821 27.118 159.003 26.03L163.151 27.016C162.856 28.2173 162.346 29.3167 161.621 30.314C160.918 31.2887 159.989 32.0593 158.833 32.626C157.677 33.1927 156.294 33.476 154.685 33.476ZM175.181 33V9.2H179.67V28.92H190.55V33H175.181ZM198.981 33.476C197.78 33.476 196.703 33.272 195.751 32.864C194.799 32.4333 194.04 31.8213 193.473 31.028C192.929 30.212 192.657 29.226 192.657 28.07C192.657 26.914 192.929 25.9507 193.473 25.18C194.04 24.3867 194.811 23.7973 195.785 23.412C196.783 23.004 197.916 22.8 199.185 22.8H203.809V21.848C203.809 21.0547 203.56 20.4087 203.061 19.91C202.563 19.3887 201.769 19.128 200.681 19.128C199.616 19.128 198.823 19.3773 198.301 19.876C197.78 20.352 197.44 20.9753 197.281 21.746L193.337 20.42C193.609 19.5587 194.04 18.7767 194.629 18.074C195.241 17.3487 196.046 16.7707 197.043 16.34C198.063 15.8867 199.299 15.66 200.749 15.66C202.971 15.66 204.727 16.2153 206.019 17.326C207.311 18.4367 207.957 20.046 207.957 22.154V28.444C207.957 29.124 208.275 29.464 208.909 29.464H210.269V33H207.413C206.575 33 205.883 32.796 205.339 32.388C204.795 31.98 204.523 31.436 204.523 30.756V30.722H203.877C203.787 30.994 203.583 31.3567 203.265 31.81C202.948 32.2407 202.449 32.626 201.769 32.966C201.089 33.306 200.16 33.476 198.981 33.476ZM199.729 30.008C200.931 30.008 201.905 29.6793 202.653 29.022C203.424 28.342 203.809 27.4467 203.809 26.336V25.996H199.491C198.698 25.996 198.075 26.166 197.621 26.506C197.168 26.846 196.941 27.322 196.941 27.934C196.941 28.546 197.179 29.0447 197.655 29.43C198.131 29.8153 198.823 30.008 199.729 30.008ZM223.533 33.476C222.015 33.476 220.847 33.2153 220.031 32.694C219.215 32.1727 218.615 31.5947 218.229 30.96H217.617V33H213.401V9.2H217.685V18.074H218.297C218.547 17.666 218.875 17.2807 219.283 16.918C219.714 16.5553 220.269 16.2607 220.949 16.034C221.652 15.7847 222.513 15.66 223.533 15.66C224.893 15.66 226.151 16 227.307 16.68C228.463 17.3373 229.393 18.312 230.095 19.604C230.798 20.896 231.149 22.46 231.149 24.296V24.84C231.149 26.676 230.798 28.24 230.095 29.532C229.393 30.824 228.463 31.81 227.307 32.49C226.151 33.1473 224.893 33.476 223.533 33.476ZM222.241 29.736C223.556 29.736 224.655 29.3167 225.539 28.478C226.423 27.6167 226.865 26.37 226.865 24.738V24.398C226.865 22.766 226.423 21.5307 225.539 20.692C224.678 19.8307 223.579 19.4 222.241 19.4C220.927 19.4 219.827 19.8307 218.943 20.692C218.059 21.5307 217.617 22.766 217.617 24.398V24.738C217.617 26.37 218.059 27.6167 218.943 28.478C219.827 29.3167 220.927 29.736 222.241 29.736Z"
        fill="black" />
    <defs>
        <clipPath id="clip0_4_29">
            <rect width="36" height="36" fill="white" transform="translate(0 3)" />
        </clipPath>
    </defs>
</svg>