<svg width="230" height="36" viewBox="0 0 230 36" fill="none" xmlns="http://www.w3.org/2000/svg">
<g clip-path="url(#clip0_3_9)">
<mask id="mask0_3_9" style="mask-type:luminance" maskUnits="userSpaceOnUse" x="0" y="0" width="36" height="36">
<path d="M36 0H0V36H36V0Z" fill="white"/>
</mask>
<g mask="url(#mask0_3_9)">
<path d="M12 12L32 4L26 18.5L32 32L12 24L4.00002 32V18.5V4L12 12Z" fill="white"/>
</g>
<path d="M35.244 30V6.2H39.732V15.652H40.344L48.062 6.2H53.808L43.88 17.93L54.148 30H48.232L40.344 20.344H39.732V30H35.244ZM58.1008 36.8V33.06H67.2808C67.9154 33.06 68.2328 32.72 68.2328 32.04V27.79H67.6208C67.4394 28.1753 67.1561 28.5607 66.7708 28.946C66.3854 29.3313 65.8641 29.6487 65.2068 29.898C64.5494 30.1473 63.7108 30.272 62.6908 30.272C61.3761 30.272 60.2201 29.9773 59.2228 29.388C58.2481 28.776 57.4888 27.9373 56.9448 26.872C56.4008 25.8067 56.1288 24.5827 56.1288 23.2V13.136H60.4128V22.86C60.4128 24.1293 60.7188 25.0813 61.3308 25.716C61.9654 26.3507 62.8608 26.668 64.0168 26.668C65.3314 26.668 66.3514 26.2373 67.0768 25.376C67.8021 24.492 68.1648 23.268 68.1648 21.704V13.136H72.4488V32.992C72.4488 34.148 72.1088 35.066 71.4288 35.746C70.7488 36.4487 69.8421 36.8 68.7088 36.8H58.1008ZM77.2159 30V13.136H81.4319V15.346H82.0439C82.3159 14.7567 82.8259 14.2013 83.5739 13.68C84.3219 13.136 85.4553 12.864 86.9739 12.864C88.2886 12.864 89.4333 13.17 90.4079 13.782C91.4053 14.3713 92.1759 15.1987 92.7199 16.264C93.2639 17.3067 93.5359 18.5307 93.5359 19.936V30H89.2519V20.276C89.2519 19.0067 88.9346 18.0547 88.2999 17.42C87.6879 16.7853 86.8039 16.468 85.6479 16.468C84.3333 16.468 83.3133 16.91 82.5879 17.794C81.8626 18.6553 81.4999 19.868 81.4999 21.432V30H77.2159ZM105.851 30.476C104.174 30.476 102.689 30.1247 101.397 29.422C100.128 28.6967 99.1304 27.688 98.4051 26.396C97.7024 25.0813 97.3511 23.54 97.3511 21.772V21.364C97.3511 19.596 97.7024 18.066 98.4051 16.774C99.1078 15.4593 100.094 14.4507 101.363 13.748C102.632 13.0227 104.106 12.66 105.783 12.66C107.438 12.66 108.877 13.034 110.101 13.782C111.325 14.5073 112.277 15.5273 112.957 16.842C113.637 18.134 113.977 19.6413 113.977 21.364V22.826H101.703C101.748 23.982 102.179 24.9227 102.995 25.648C103.811 26.3733 104.808 26.736 105.987 26.736C107.188 26.736 108.072 26.4753 108.639 25.954C109.206 25.4327 109.636 24.8547 109.931 24.22L113.433 26.056C113.116 26.6453 112.651 27.2913 112.039 27.994C111.45 28.674 110.656 29.2633 109.659 29.762C108.662 30.238 107.392 30.476 105.851 30.476ZM101.737 19.63H109.625C109.534 18.6553 109.138 17.8733 108.435 17.284C107.755 16.6947 106.86 16.4 105.749 16.4C104.593 16.4 103.675 16.6947 102.995 17.284C102.315 17.8733 101.896 18.6553 101.737 19.63ZM123.686 30C122.575 30 121.668 29.66 120.966 28.98C120.286 28.2773 119.946 27.348 119.946 26.192V16.672H115.73V13.136H119.946V7.9H124.23V13.136H128.854V16.672H124.23V25.444C124.23 26.124 124.547 26.464 125.182 26.464H128.446V30H123.686ZM132.732 30V13.136H137.016V30H132.732ZM134.874 11.164C134.103 11.164 133.446 10.9147 132.902 10.416C132.38 9.91733 132.12 9.26 132.12 8.444C132.12 7.628 132.38 6.97067 132.902 6.472C133.446 5.97333 134.103 5.724 134.874 5.724C135.667 5.724 136.324 5.97333 136.846 6.472C137.367 6.97067 137.628 7.628 137.628 8.444C137.628 9.26 137.367 9.91733 136.846 10.416C136.324 10.9147 135.667 11.164 134.874 11.164ZM149.685 30.476C148.053 30.476 146.568 30.136 145.231 29.456C143.916 28.776 142.873 27.79 142.103 26.498C141.332 25.206 140.947 23.642 140.947 21.806V21.33C140.947 19.494 141.332 17.93 142.103 16.638C142.873 15.346 143.916 14.36 145.231 13.68C146.568 13 148.053 12.66 149.685 12.66C151.294 12.66 152.677 12.9433 153.833 13.51C154.989 14.0767 155.918 14.8587 156.621 15.856C157.346 16.8307 157.822 17.9413 158.049 19.188L153.901 20.072C153.81 19.392 153.606 18.78 153.289 18.236C152.971 17.692 152.518 17.2613 151.929 16.944C151.362 16.6267 150.648 16.468 149.787 16.468C148.925 16.468 148.143 16.6607 147.441 17.046C146.761 17.4087 146.217 17.964 145.809 18.712C145.423 19.4373 145.231 20.3327 145.231 21.398V21.738C145.231 22.8033 145.423 23.71 145.809 24.458C146.217 25.1833 146.761 25.7387 147.441 26.124C148.143 26.4867 148.925 26.668 149.787 26.668C151.079 26.668 152.053 26.3393 152.711 25.682C153.391 25.002 153.821 24.118 154.003 23.03L158.151 24.016C157.856 25.2173 157.346 26.3167 156.621 27.314C155.918 28.2887 154.989 29.0593 153.833 29.626C152.677 30.1927 151.294 30.476 149.685 30.476ZM170.181 30V6.2H174.67V25.92H185.55V30H170.181ZM193.981 30.476C192.78 30.476 191.703 30.272 190.751 29.864C189.799 29.4333 189.04 28.8213 188.473 28.028C187.929 27.212 187.657 26.226 187.657 25.07C187.657 23.914 187.929 22.9507 188.473 22.18C189.04 21.3867 189.811 20.7973 190.785 20.412C191.783 20.004 192.916 19.8 194.185 19.8H198.809V18.848C198.809 18.0547 198.56 17.4087 198.061 16.91C197.563 16.3887 196.769 16.128 195.681 16.128C194.616 16.128 193.823 16.3773 193.301 16.876C192.78 17.352 192.44 17.9753 192.281 18.746L188.337 17.42C188.609 16.5587 189.04 15.7767 189.629 15.074C190.241 14.3487 191.046 13.7707 192.043 13.34C193.063 12.8867 194.299 12.66 195.749 12.66C197.971 12.66 199.727 13.2153 201.019 14.326C202.311 15.4367 202.957 17.046 202.957 19.154V25.444C202.957 26.124 203.275 26.464 203.909 26.464H205.269V30H202.413C201.575 30 200.883 29.796 200.339 29.388C199.795 28.98 199.523 28.436 199.523 27.756V27.722H198.877C198.787 27.994 198.583 28.3567 198.265 28.81C197.948 29.2407 197.449 29.626 196.769 29.966C196.089 30.306 195.16 30.476 193.981 30.476ZM194.729 27.008C195.931 27.008 196.905 26.6793 197.653 26.022C198.424 25.342 198.809 24.4467 198.809 23.336V22.996H194.491C193.698 22.996 193.075 23.166 192.621 23.506C192.168 23.846 191.941 24.322 191.941 24.934C191.941 25.546 192.179 26.0447 192.655 26.43C193.131 26.8153 193.823 27.008 194.729 27.008ZM218.533 30.476C217.015 30.476 215.847 30.2153 215.031 29.694C214.215 29.1727 213.615 28.5947 213.229 27.96H212.617V30H208.401V6.2H212.685V15.074H213.297C213.547 14.666 213.875 14.2807 214.283 13.918C214.714 13.5553 215.269 13.2607 215.949 13.034C216.652 12.7847 217.513 12.66 218.533 12.66C219.893 12.66 221.151 13 222.307 13.68C223.463 14.3373 224.393 15.312 225.095 16.604C225.798 17.896 226.149 19.46 226.149 21.296V21.84C226.149 23.676 225.798 25.24 225.095 26.532C224.393 27.824 223.463 28.81 222.307 29.49C221.151 30.1473 219.893 30.476 218.533 30.476ZM217.241 26.736C218.556 26.736 219.655 26.3167 220.539 25.478C221.423 24.6167 221.865 23.37 221.865 21.738V21.398C221.865 19.766 221.423 18.5307 220.539 17.692C219.678 16.8307 218.579 16.4 217.241 16.4C215.927 16.4 214.827 16.8307 213.943 17.692C213.059 18.5307 212.617 19.766 212.617 21.398V21.738C212.617 23.37 213.059 24.6167 213.943 25.478C214.827 26.3167 215.927 26.736 217.241 26.736Z" fill="white"/>
</g>
<defs>
<clipPath id="clip0_3_9">
<rect width="230" height="36" fill="white"/>
</clipPath>
</defs>
</svg>
